<svg width="102" height="383" viewBox="0 0 102 383" fill="none" xmlns="http://www.w3.org/2000/svg">
<path d="M2.55999 382.307V378.211C2.55999 362.936 6.74133 351.16 15.104 342.883C23.3813 334.52 35.2 330.339 50.56 330.339C59.3493 330.339 67.4133 332.472 74.752 336.739C82.0907 341.006 87.8933 346.808 92.16 354.147C96.4267 361.4 98.56 369.422 98.56 378.211V382.307H2.55999ZM94.592 377.187C94.592 369.336 92.672 362.168 88.832 355.683C84.9067 349.198 79.5733 344.078 72.832 340.323C66.0907 336.483 58.6667 334.563 50.56 334.563C36.3947 334.563 25.5147 338.275 17.92 345.699C10.24 353.038 6.4 363.534 6.4 377.187V378.211H94.592V377.187Z" fill="#EDEDED"/>
<path d="M98.56 233.326V237.806L61.952 255.982V306.926L98.56 324.718V329.198L0.256002 281.326L98.56 233.326ZM58.24 257.518L9.472 281.582L58.24 305.134V257.518Z" fill="#EDEDED"/>
<path d="M12.16 215.345H98.56V219.057H1.152L88.832 148.401H2.56V144.689H99.968L12.16 215.345Z" fill="#EDEDED"/>
<path d="M101.12 79.376C101.12 88.336 98.944 96.5707 94.592 104.08C90.1547 111.589 84.096 117.563 76.416 122C68.6507 126.352 59.9467 128.528 50.304 128.528C41.0027 128.528 32.512 126.267 24.832 121.744C17.152 117.136 11.0933 111.035 6.656 103.44C2.21867 95.76 -1.02777e-07 87.6107 0 78.992C7.12313e-08 73.0187 0.554667 68.2827 1.664 64.784C2.688 61.2853 4.52267 57.232 7.168 52.624H11.904C8.91734 56.976 6.82667 61.0293 5.632 64.784C4.352 68.4533 3.712 73.0613 3.712 78.608C3.712 87.056 5.888 94.7787 10.24 101.776C14.5067 108.688 20.2667 114.192 27.52 118.288C34.688 122.299 42.4107 124.304 50.688 124.304C59.0507 124.304 66.816 122.256 73.984 118.16C81.152 114.064 86.8693 108.645 91.136 101.904C95.3173 95.0773 97.408 87.7387 97.408 79.888C97.408 74.256 96.768 69.3493 95.488 65.168C94.1227 60.9867 92.032 56.8053 89.216 52.624H93.952C96.4267 56.72 98.2187 60.944 99.328 65.296C100.523 69.5627 101.12 74.256 101.12 79.376Z" fill="#EDEDED"/>
<path d="M2.56 34.432L2.56 0L6.272 4.42652e-08L6.272 30.208H58.496V4.992H62.208V30.208L94.848 30.208V1.10052e-06L98.56 1.14479e-06V34.432H2.56Z" fill="#EDEDED"/>
</svg>
