<svg width="255" height="169" viewBox="0 0 255 169" fill="none" xmlns="http://www.w3.org/2000/svg">
<path d="M4.992 33H7.104C12.1387 33 16.064 34.344 18.88 37.032C21.696 39.6773 23.104 43.24 23.104 47.72C23.104 50.8347 22.4213 53.608 21.056 56.04C19.6907 58.4293 17.8347 60.2853 15.488 61.608C13.1413 62.888 10.5173 63.528 7.616 63.528H7.104V81H4.992V33ZM7.744 61.672C11.6267 61.672 14.8053 60.4773 17.28 58.088C19.7547 55.656 20.992 52.2427 20.992 47.848C20.992 43.6667 19.8187 40.4667 17.472 38.248C15.168 35.9867 11.8827 34.856 7.616 34.856H7.104V61.672H7.744ZM44.831 82.28C42.0577 82.28 39.583 81.704 37.407 80.552C35.231 79.3573 33.5243 77.672 32.287 75.496C31.0497 73.32 30.431 70.7813 30.431 67.88V33H32.543V67.816C32.543 70.376 33.0763 72.616 34.143 74.536C35.2097 76.4133 36.6603 77.864 38.495 78.888C40.3723 79.912 42.463 80.424 44.767 80.424C47.071 80.424 49.1403 79.9333 50.975 78.952C52.8523 77.928 54.303 76.4773 55.327 74.6C56.3937 72.68 56.927 70.4187 56.927 67.816V33H59.039V67.752C59.039 70.696 58.4417 73.2773 57.247 75.496C56.0523 77.672 54.367 79.3573 52.191 80.552C50.0577 81.704 47.6043 82.28 44.831 82.28ZM69.181 33H71.293V79.144H86.141V81H69.181V33ZM102.604 81.896C97.2707 81.896 93.132 79.6987 90.188 75.304V71.848C91.34 74.408 93.004 76.4133 95.18 77.864C97.3987 79.3147 100.044 80.04 103.116 80.04C105.249 80.04 107.212 79.5707 109.004 78.632C110.839 77.6933 112.289 76.3707 113.356 74.664C114.423 72.9573 114.956 70.9947 114.956 68.776C114.956 66.7707 114.615 65.0427 113.932 63.592C113.249 62.1413 112.119 60.7547 110.54 59.432C108.961 58.0667 106.679 56.4667 103.692 54.632L101.644 53.352C99.7667 52.2 98.252 51.176 97.1 50.28C95.948 49.384 94.9453 48.3387 94.092 47.144C92.9827 45.48 92.428 43.56 92.428 41.384C92.428 38.4827 93.3667 36.2213 95.244 34.6C97.1213 32.9787 99.5107 32.168 102.412 32.168C106.337 32.168 109.452 33.6187 111.756 36.52V39.784C110.775 37.992 109.431 36.584 107.724 35.56C106.017 34.536 104.14 34.024 102.092 34.024C99.9587 34.024 98.1667 34.6853 96.716 36.008C95.2653 37.3307 94.54 39.1013 94.54 41.32C94.54 43.496 95.2013 45.3733 96.524 46.952C97.8893 48.488 100.172 50.1733 103.372 52.008C107.297 54.312 110.348 56.4027 112.524 58.28C114.06 59.688 115.169 61.2453 115.852 62.952C116.577 64.6587 116.94 66.5573 116.94 68.648C116.94 71.2933 116.321 73.6187 115.084 75.624C113.847 77.6293 112.14 79.1867 109.964 80.296C107.788 81.3627 105.335 81.896 102.604 81.896ZM124.681 33H141.897V34.856H126.793V60.968H139.401V62.824H126.793V79.144H141.897V81H124.681V33ZM54.272 108V156H52.16V111.072L29.504 156.896L6.976 110.496V156H4.864V108H7.872L29.504 152.544L51.328 108H54.272ZM87.2805 157.28C82.8005 157.28 78.6405 156.107 74.8005 153.76C70.9605 151.413 67.9098 148.299 65.6485 144.416C63.4298 140.491 62.3205 136.288 62.3205 131.808C62.3205 127.371 63.4512 123.232 65.7125 119.392C67.9738 115.509 71.0245 112.437 74.8645 110.176C78.7045 107.872 82.8645 106.72 87.3445 106.72C91.8672 106.72 96.0272 107.851 99.8245 110.112C103.622 112.373 106.63 115.445 108.849 119.328C111.11 123.168 112.241 127.328 112.241 131.808C112.241 136.416 111.11 140.683 108.849 144.608C106.63 148.491 103.601 151.584 99.7605 153.888C95.9632 156.149 91.8032 157.28 87.2805 157.28ZM87.2805 155.424C91.3765 155.424 95.1738 154.379 98.6725 152.288C102.171 150.155 104.945 147.296 106.993 143.712C109.083 140.085 110.129 136.16 110.129 131.936C110.129 127.755 109.105 123.872 107.057 120.288C105.009 116.704 102.235 113.867 98.7365 111.776C95.2378 109.643 91.4405 108.576 87.3445 108.576C83.2058 108.576 79.3872 109.643 75.8885 111.776C72.3898 113.867 69.5952 116.704 67.5045 120.288C65.4565 123.872 64.4325 127.755 64.4325 131.936C64.4325 136.16 65.4565 140.085 67.5045 143.712C69.5952 147.296 72.3898 150.155 75.8885 152.288C79.3872 154.379 83.1845 155.424 87.2805 155.424ZM123.166 109.856H112.094V108H136.222V109.856H125.278V156H123.166V109.856ZM142.939 108H145.051V156H142.939V108ZM178.406 157.28C173.926 157.28 169.766 156.107 165.926 153.76C162.086 151.413 159.035 148.299 156.774 144.416C154.555 140.491 153.446 136.288 153.446 131.808C153.446 127.371 154.576 123.232 156.838 119.392C159.099 115.509 162.15 112.437 165.99 110.176C169.83 107.872 173.99 106.72 178.47 106.72C182.992 106.72 187.152 107.851 190.95 110.112C194.747 112.373 197.755 115.445 199.974 119.328C202.235 123.168 203.366 127.328 203.366 131.808C203.366 136.416 202.235 140.683 199.974 144.608C197.755 148.491 194.726 151.584 190.886 153.888C187.088 156.149 182.928 157.28 178.406 157.28ZM178.406 155.424C182.502 155.424 186.299 154.379 189.798 152.288C193.296 150.155 196.07 147.296 198.118 143.712C200.208 140.085 201.254 136.16 201.254 131.936C201.254 127.755 200.23 123.872 198.182 120.288C196.134 116.704 193.36 113.867 189.862 111.776C186.363 109.643 182.566 108.576 178.47 108.576C174.331 108.576 170.512 109.643 167.014 111.776C163.515 113.867 160.72 116.704 158.63 120.288C156.582 123.872 155.558 127.755 155.558 131.936C155.558 136.16 156.582 140.085 158.63 143.712C160.72 147.296 163.515 150.155 167.014 152.288C170.512 154.379 174.31 155.424 178.406 155.424ZM213.912 112.8V156H212.056V107.296L247.384 151.136V108H249.24V156.704L213.912 112.8Z" fill="#EDEDED"/>
<path fill-rule="evenodd" clip-rule="evenodd" d="M203.04 0.164209C196.875 0.728546 191.444 2.31307 185.495 5.28318C180.722 7.6658 177.06 10.2506 173.404 13.8162C165.854 21.1779 161.397 29.5579 159.691 39.5977C159.231 42.3017 158.879 47.4799 159.04 49.1613C159.173 50.5537 159.613 51.3709 160.459 51.7984C161.239 52.1931 161.782 52.0695 164.179 50.9509C167.952 49.1913 171.508 47.9679 175.088 47.1989L177.311 46.7211L184.13 46.6576C187.881 46.6227 191.188 46.638 191.479 46.6914C192.253 46.8335 193.039 47.5775 193.245 48.3643C193.341 48.7287 193.712 51.0552 194.07 53.5342C194.429 56.0132 194.772 58.1672 194.833 58.321C194.94 58.5904 195.221 57.6751 197.094 50.9697C197.44 49.7303 198.037 47.5971 198.421 46.2294C198.804 44.8617 199.415 42.6586 199.779 41.3336C200.143 40.0086 200.575 38.4699 200.738 37.9143C201.014 36.976 202.251 32.5418 203.513 27.9673C203.808 26.8988 204.274 25.2202 204.549 24.2372C204.824 23.2541 205.337 21.3658 205.688 20.0408C206.372 17.4631 206.671 16.6254 206.977 16.435C207.314 16.2253 207.696 16.3007 208.118 16.6604C208.497 16.984 208.581 17.3184 209.234 21.1287C211.15 32.3068 211.898 36.6616 212.32 39.08C212.573 40.5332 213.019 43.1383 213.31 44.8693C213.602 46.6002 213.876 48.0152 213.919 48.0136C213.963 48.0121 214.262 47.4351 214.583 46.7315C216.015 43.5998 217.915 39.7155 218.219 39.2971C218.595 38.7808 219.6 38.2234 220.147 38.2286C220.788 38.2346 221.786 38.7873 222.278 39.4088C222.541 39.7408 223.456 41.1455 224.312 42.5305C226.176 45.5502 226.705 46.188 227.544 46.4344C227.996 46.5666 230.841 46.6179 237.744 46.6179H247.318L247.225 43.9369C246.991 37.1891 244.876 30.7455 241.088 25.2404C239.869 23.4691 239.125 22.5275 238.946 22.5275C238.901 22.5275 238.558 22.7383 238.184 22.9957C237.343 23.5751 235.577 24.1938 234.379 24.3287L233.477 24.4302L234.464 25.6159C235.851 27.2836 236.144 27.693 237.161 29.3897C238.351 31.3746 239.219 33.2447 239.971 35.4437C240.585 37.2392 241.26 40.0625 241.128 40.2845C241.09 40.3487 238.718 40.4011 235.856 40.4011H230.654L230.188 39.4359C227.781 34.4501 223.841 31.89 219.475 32.475C218.761 32.5706 217.996 32.7164 217.773 32.7992C217.551 32.8819 217.348 32.9287 217.322 32.9032C217.275 32.8575 215.988 25.2066 215.026 19.2637C214.757 17.5968 214.397 15.8133 214.226 15.3004C213.633 13.5174 211.891 11.6842 210.139 10.9999C209.393 10.7086 208.926 10.6459 207.479 10.6421C205.764 10.6379 205.697 10.6511 204.541 11.2195C203.282 11.8386 202.705 12.2913 201.91 13.2837C201.126 14.2622 200.806 15.0073 200.196 17.2755C199.465 19.9951 199.392 20.1723 198.956 20.2634C198.756 20.305 198.054 20.4423 197.396 20.5683C195.741 20.885 193.045 21.7891 191.227 22.6373C186.182 24.991 181.821 28.7426 178.616 33.4848C177.499 35.1372 175.867 38.313 175.327 39.8854L174.944 41.0016L173.507 41.3351C172.717 41.5187 170.58 42.1575 168.758 42.7546C166.937 43.3519 165.414 43.8081 165.373 43.7683C165.332 43.7286 165.376 43.0072 165.47 42.1653C166.248 35.2058 169.165 28.0822 173.52 22.5064C176.116 19.1835 180.536 15.1382 183.913 12.9952C191.106 8.43047 197.818 6.30461 205.661 6.1063C208.572 6.03278 209.461 6.06868 211.691 6.35046C215.799 6.86926 219.97 7.91447 222.525 9.06537C223.022 9.28902 223.522 9.46823 223.637 9.46341C223.752 9.45875 224.122 9.03506 224.459 8.52202C225.036 7.64435 226.347 6.43284 227.527 5.68495C227.815 5.50264 228.051 5.3051 228.052 5.24619C228.056 5.07243 224.299 3.32984 222.575 2.70551C216.593 0.538776 209.306 -0.409297 203.04 0.164209ZM231.31 6.52516C230.163 6.75534 229.302 7.12975 228.283 7.84096C227.087 8.67635 226.331 9.54174 225.702 10.7986C224.944 12.3103 224.812 12.8679 224.818 14.5233C224.823 15.7857 224.898 16.2678 225.215 17.0901C226.789 21.1726 230.709 23.183 234.886 22.0501C236.513 21.609 237.466 21.068 238.642 19.9188C240.693 17.9145 241.524 15.0988 240.831 12.4974C240.297 10.4884 238.519 8.29355 236.627 7.30677C235.085 6.50278 232.971 6.19193 231.31 6.52516ZM234.506 11.1549C236.203 12.0103 237.057 13.7818 236.566 15.4254C235.915 17.601 233.508 18.7419 231.422 17.8638C229.97 17.2524 229.134 16.0042 229.134 14.4456C229.134 12.6952 230.107 11.4149 231.865 10.8516C232.477 10.6555 233.822 10.8098 234.506 11.1549ZM197.821 26.2965C197.32 28.1972 193.917 40.2881 193.871 40.3339C193.837 40.367 190.99 40.3975 187.545 40.4014L181.282 40.4087L181.322 40.0806C181.391 39.5169 182.714 37.0669 183.765 35.5544C185.079 33.6655 188.143 30.6564 190.019 29.4149C191.844 28.2065 194.404 26.9423 196.131 26.3961C197.83 25.8593 197.938 25.8529 197.821 26.2965ZM249.579 34.8497C248.763 35.302 248.225 36.0879 248.225 36.8267C248.225 37.1434 248.384 38.3395 248.58 39.4847C248.893 41.3222 248.933 42.0961 248.922 46.074C248.915 48.5529 248.844 51.0008 248.765 51.5137L248.62 52.4462H236.618H224.616L223.981 52.0345C223.29 51.5872 222.834 50.8975 220.835 47.2785C220.163 46.0604 219.564 45.0645 219.506 45.0653C219.381 45.0671 219.209 45.4432 217.626 49.1824C216.444 51.9738 213.417 59.3908 212.88 60.8117C212.508 61.7946 212.075 62.3155 211.629 62.3155C210.941 62.3155 210.713 61.8182 210.324 59.478C209.962 57.3002 207.597 42.7464 207.161 40.0125C206.767 37.5456 206.733 37.4002 206.602 37.6283C206.535 37.7463 206.228 38.7157 205.919 39.7825C205.611 40.8493 204.529 44.5897 203.514 48.0944C202.499 51.5992 201.102 56.425 200.41 58.8185C199.717 61.212 199.084 63.3802 199.001 63.6366C198.919 63.8931 198.34 65.8864 197.714 68.0661C197.088 70.2459 196.334 72.8687 196.038 73.8945C195.348 76.2828 194.805 76.7918 193.841 75.9538C193.478 75.6385 193.392 75.3141 192.963 72.6511C191.57 64.0019 190.071 55.1809 189.917 54.7207C189.821 54.433 189.468 53.9298 189.134 53.6024C188.187 52.6766 187.423 52.524 183.73 52.524C176.498 52.524 173.278 53.7798 164.917 59.8611C162.125 61.8922 161.934 62.1157 162.016 63.2481C162.139 64.9265 165.541 71.0768 168.427 74.8385C172.716 80.4292 176.782 84.0373 182.768 87.5644C192.47 93.2812 204.633 95.3256 215.984 93.148C228.321 90.7812 238.79 84.0926 246.262 73.8045C253.25 64.1826 256.299 51.5457 254.488 39.7144C253.962 36.281 253.555 35.336 252.338 34.7202C251.655 34.3746 250.324 34.4371 249.579 34.8497ZM184.613 58.9351C184.658 59.1274 184.838 60.194 185.012 61.3053C187.314 75.9802 187.435 76.6272 188.132 78.0083C188.795 79.3221 190.11 80.729 191.171 81.2583C192.694 82.0191 194.793 82.2551 196.37 81.8429C197.223 81.6195 198.434 81.0667 198.85 80.7099C199.072 80.5193 199.297 80.5314 200.529 80.8C202.251 81.1753 204.889 81.4338 206.931 81.4274C210.065 81.4176 214.463 80.6441 216.262 79.7865C218.52 78.7099 218.389 75.6975 216.057 75.0584C215.445 74.8906 215.161 74.915 213.649 75.2661C212.706 75.4849 211.434 75.7542 210.822 75.8646C208.471 76.2889 202.112 75.974 201.896 75.4227C201.85 75.3041 202.041 74.3873 202.32 73.3851C203.629 68.6986 204.899 64.4025 205.007 64.2941C205.073 64.2281 205.404 64.5674 205.742 65.048C206.519 66.1527 207.784 67.1653 208.957 67.6235C209.711 67.9179 210.173 67.9803 211.625 67.9841C213.332 67.9883 213.412 67.9727 214.563 67.4154C216.952 66.2583 218.277 64.4039 219.569 60.4116L220.16 58.5854H233.557C246.523 58.5854 246.954 58.5947 246.954 58.8751C246.954 59.2295 245.949 61.8678 245.052 63.8698C243.202 67.9964 240.45 71.954 237.125 75.2706C229.074 83.3004 219.557 87.5044 208.519 87.9062C200.786 88.1875 193.151 86.3883 186.642 82.7499C179.547 78.7846 174.3 73.6734 170.274 66.8075C168.9 64.4627 168.903 64.5225 170.113 63.6814C176.4 59.3106 178.026 58.6572 182.748 58.6051C184.475 58.586 184.534 58.5964 184.613 58.9351Z" fill="#EDEDED"/>
<path d="M188.237 15.9046C188.237 16.8225 187.476 17.5667 186.538 17.5667C185.6 17.5667 184.84 16.8225 184.84 15.9046C184.84 14.9867 185.6 14.2425 186.538 14.2425C187.476 14.2425 188.237 14.9867 188.237 15.9046Z" fill="#EDEDED"/>
<path d="M178.143 27.0596C178.143 27.9775 177.382 28.7217 176.444 28.7217C175.506 28.7217 174.746 27.9775 174.746 27.0596C174.746 26.1417 175.506 25.3975 176.444 25.3975C177.382 25.3975 178.143 26.1417 178.143 27.0596Z" fill="#EDEDED"/>
<path d="M175.374 64.5998C175.374 65.0736 174.982 65.4577 174.497 65.4577C174.013 65.4577 173.621 65.0736 173.621 64.5998C173.621 64.126 174.013 63.7419 174.497 63.7419C174.982 63.7419 175.374 64.126 175.374 64.5998Z" fill="#EDEDED"/>
<path d="M183.218 69.9099C183.218 70.8376 182.45 71.5896 181.502 71.5896C180.554 71.5896 179.785 70.8376 179.785 69.9099C179.785 68.9822 180.554 68.2302 181.502 68.2302C182.45 68.2302 183.218 68.9822 183.218 69.9099Z" fill="#EDEDED"/>
<path d="M233.799 70.8004C233.799 72.523 232.372 73.9195 230.612 73.9195C228.852 73.9195 227.425 72.523 227.425 70.8004C227.425 69.0779 228.852 67.6814 230.612 67.6814C232.372 67.6814 233.799 69.0779 233.799 70.8004Z" fill="#EDEDED"/>
<path d="M240.016 64.5031C240.016 64.962 239.636 65.334 239.167 65.334C238.698 65.334 238.317 64.962 238.317 64.5031C238.317 64.0442 238.698 63.6721 239.167 63.6721C239.636 63.6721 240.016 64.0442 240.016 64.5031Z" fill="#EDEDED"/>
<path d="M227.67 25.6477C227.67 27.0899 226.475 28.2591 225.001 28.2591C223.528 28.2591 222.333 27.0899 222.333 25.6477C222.333 24.2054 223.528 23.0362 225.001 23.0362C226.475 23.0362 227.67 24.2054 227.67 25.6477Z" fill="#EDEDED"/>
</svg>
