<svg width="489" height="102" viewBox="0 0 489 102" fill="none" xmlns="http://www.w3.org/2000/svg">
<path d="M98.816 2.78412V98.7841H94.592V8.92812L49.28 100.576L4.224 7.77612V98.7841H0V2.78412H6.016L49.28 91.8721L92.928 2.78412H98.816Z" fill="#EDEDED"/>
<path d="M164.833 101.344C155.873 101.344 147.553 98.9975 139.873 94.3041C132.193 89.6108 126.092 83.3815 121.569 75.6161C117.132 67.7655 114.913 59.3601 114.913 50.4001C114.913 41.5255 117.174 33.2481 121.697 25.5681C126.22 17.8028 132.321 11.6588 140.001 7.13612C147.681 2.52812 156.001 0.224121 164.961 0.224121C174.006 0.224121 182.326 2.48546 189.921 7.00813C197.516 11.5308 203.532 17.6748 207.969 25.4401C212.492 33.1201 214.753 41.4401 214.753 50.4001C214.753 59.6161 212.492 68.1495 207.969 76.0001C203.532 83.7655 197.473 89.9521 189.793 94.5601C182.198 99.0828 173.878 101.344 164.833 101.344ZM164.833 97.6321C173.025 97.6321 180.62 95.5415 187.617 91.3601C194.614 87.0935 200.161 81.3761 204.257 74.2081C208.438 66.9548 210.529 59.1041 210.529 50.6561C210.529 42.2935 208.481 34.5281 204.385 27.3601C200.289 20.1921 194.742 14.5175 187.745 10.3361C180.748 6.06945 173.153 3.93612 164.961 3.93612C156.684 3.93612 149.046 6.06945 142.049 10.3361C135.052 14.5175 129.462 20.1921 125.281 27.3601C121.185 34.5281 119.137 42.2935 119.137 50.6561C119.137 59.1041 121.185 66.9548 125.281 74.2081C129.462 81.3761 135.052 87.0935 142.049 91.3601C149.046 95.5415 156.641 97.6321 164.833 97.6321Z" fill="#EDEDED"/>
<path d="M236.604 6.49612H214.46V2.78412H262.716V6.49612H240.828V98.7841H236.604V6.49612Z" fill="#EDEDED"/>
<path d="M276.149 2.78412H280.373V98.7841H276.149V2.78412Z" fill="#EDEDED"/>
<path d="M347.083 101.344C338.123 101.344 329.803 98.9975 322.123 94.3041C314.443 89.6108 308.342 83.3815 303.819 75.6161C299.382 67.7655 297.163 59.3601 297.163 50.4001C297.163 41.5255 299.424 33.2481 303.947 25.5681C308.47 17.8028 314.571 11.6588 322.251 7.13612C329.931 2.52812 338.251 0.224121 347.211 0.224121C356.256 0.224121 364.576 2.48546 372.171 7.00813C379.766 11.5308 385.782 17.6748 390.219 25.4401C394.742 33.1201 397.003 41.4401 397.003 50.4001C397.003 59.6161 394.742 68.1495 390.219 76.0001C385.782 83.7655 379.723 89.9521 372.043 94.5601C364.448 99.0828 356.128 101.344 347.083 101.344ZM347.083 97.6321C355.275 97.6321 362.87 95.5415 369.867 91.3601C376.864 87.0935 382.411 81.3761 386.507 74.2081C390.688 66.9548 392.779 59.1041 392.779 50.6561C392.779 42.2935 390.731 34.5281 386.635 27.3601C382.539 20.1921 376.992 14.5175 369.995 10.3361C362.998 6.06945 355.403 3.93612 347.211 3.93612C338.934 3.93612 331.296 6.06945 324.299 10.3361C317.302 14.5175 311.712 20.1921 307.531 27.3601C303.435 34.5281 301.387 42.2935 301.387 50.6561C301.387 59.1041 303.435 66.9548 307.531 74.2081C311.712 81.3761 317.302 87.0935 324.299 91.3601C331.296 95.5415 338.891 97.6321 347.083 97.6321Z" fill="#EDEDED"/>
<path d="M418.096 12.3841V98.7841H414.384V1.37612L485.04 89.0561V2.78412H488.752V100.192L418.096 12.3841Z" fill="#EDEDED"/>
</svg>
