<svg width="274" height="101" viewBox="0 0 274 101" fill="none" xmlns="http://www.w3.org/2000/svg">
<path d="M0 1.66399H4.224C14.2933 1.66399 22.144 4.35199 27.776 9.728C33.408 15.0187 36.224 22.144 36.224 31.104C36.224 37.3333 34.8587 42.88 32.128 47.744C29.3973 52.5227 25.6853 56.2347 20.992 58.88C16.2987 61.44 11.0507 62.72 5.248 62.72H4.224V97.664H0V1.66399ZM5.504 59.008C13.2693 59.008 19.6267 56.6187 24.576 51.84C29.5253 46.976 32 40.1493 32 31.36C32 22.9973 29.6533 16.5973 24.96 12.16C20.352 7.63733 13.7813 5.376 5.248 5.376H4.224V59.008H5.504Z" fill="#EDEDED"/>
<path d="M79.678 100.224C74.1313 100.224 69.182 99.072 64.83 96.768C60.478 94.3787 57.0647 91.008 54.59 86.656C52.1153 82.304 50.878 77.2267 50.878 71.424V1.66399H55.102V71.296C55.102 76.416 56.1687 80.896 58.302 84.736C60.4353 88.4907 63.3367 91.392 67.006 93.44C70.7607 95.488 74.942 96.512 79.55 96.512C84.158 96.512 88.2967 95.5307 91.966 93.568C95.7207 91.52 98.622 88.6187 100.67 84.864C102.803 81.024 103.87 76.5013 103.87 71.296V1.66399H108.094V71.168C108.094 77.056 106.899 82.2187 104.51 86.656C102.121 91.008 98.75 94.3787 94.398 96.768C90.1313 99.072 85.2247 100.224 79.678 100.224Z" fill="#EDEDED"/>
<path d="M128.378 1.66399H132.602V93.952H162.298V97.664H128.378V1.66399Z" fill="#EDEDED"/>
<path d="M195.224 99.456C184.557 99.456 176.28 95.0613 170.392 86.272V79.36C172.696 84.48 176.024 88.4907 180.376 91.392C184.813 94.2933 190.104 95.744 196.248 95.744C200.515 95.744 204.44 94.8053 208.024 92.928C211.693 91.0507 214.595 88.4053 216.728 84.992C218.861 81.5787 219.928 77.6533 219.928 73.216C219.928 69.2053 219.245 65.7493 217.88 62.848C216.515 59.9467 214.253 57.1733 211.096 54.528C207.939 51.7973 203.373 48.5973 197.4 44.928L193.304 42.368C189.549 40.064 186.52 38.016 184.216 36.224C181.912 34.432 179.907 32.3413 178.2 29.952C175.981 26.624 174.872 22.784 174.872 18.432C174.872 12.6293 176.749 8.10666 180.504 4.864C184.259 1.62133 189.037 0 194.84 0C202.691 0 208.92 2.90133 213.528 8.70399V15.232C211.565 11.648 208.877 8.832 205.464 6.784C202.051 4.736 198.296 3.712 194.2 3.712C189.933 3.712 186.349 5.03467 183.448 7.68C180.547 10.3253 179.096 13.8667 179.096 18.304C179.096 22.656 180.419 26.4107 183.064 29.568C185.795 32.64 190.36 36.0107 196.76 39.68C204.611 44.288 210.712 48.4693 215.064 52.224C218.136 55.04 220.355 58.1547 221.72 61.568C223.171 64.9813 223.896 68.7787 223.896 72.96C223.896 78.2507 222.659 82.9013 220.184 86.912C217.709 90.9227 214.296 94.0373 209.944 96.256C205.592 98.3893 200.685 99.456 195.224 99.456Z" fill="#EDEDED"/>
<path d="M239.378 1.66399H273.81V5.376H243.602V57.6H268.818V61.312H243.602V93.952H273.81V97.664H239.378V1.66399Z" fill="#EDEDED"/>
</svg>
