<svg width="102" height="513" viewBox="0 0 102 513" fill="none" xmlns="http://www.w3.org/2000/svg">
<path d="M100.472 487.574C100.472 498.241 96.0775 506.518 87.2881 512.406H80.3761C85.4961 510.102 89.5068 506.774 92.4081 502.422C95.3095 497.985 96.7601 492.694 96.7601 486.55C96.7601 482.283 95.8215 478.358 93.9441 474.774C92.0668 471.105 89.4214 468.203 86.0081 466.07C82.5948 463.937 78.6694 462.87 74.2321 462.87C70.2215 462.87 66.7655 463.553 63.8641 464.918C60.9628 466.283 58.1895 468.545 55.5441 471.702C52.8135 474.859 49.6135 479.425 45.9441 485.398L43.3841 489.494C41.0801 493.249 39.0321 496.278 37.2401 498.582C35.4481 500.886 33.3574 502.891 30.9681 504.598C27.6401 506.817 23.8001 507.926 19.4481 507.926C13.6455 507.926 9.12278 506.049 5.88012 502.294C2.63745 498.539 1.01612 493.761 1.01612 487.958C1.01612 480.107 3.91745 473.878 9.72011 469.27H16.2481C12.6641 471.233 9.84812 473.921 7.80012 477.334C5.75212 480.747 4.72812 484.502 4.72812 488.598C4.72812 492.865 6.05079 496.449 8.69612 499.35C11.3414 502.251 14.8828 503.702 19.3201 503.702C23.6721 503.702 27.4268 502.379 30.5841 499.734C33.6561 497.003 37.0268 492.438 40.6961 486.038C45.3041 478.187 49.4855 472.086 53.2401 467.734C56.0561 464.662 59.1708 462.443 62.5841 461.078C65.9975 459.627 69.7948 458.902 73.9761 458.902C79.2668 458.902 83.9175 460.139 87.9281 462.614C91.9388 465.089 95.0535 468.502 97.2721 472.854C99.4054 477.206 100.472 482.113 100.472 487.574Z" fill="#EDEDED"/>
<path d="M101.24 398.364C101.24 407.324 99.0641 415.559 94.7121 423.068C90.2748 430.577 84.2161 436.551 76.5361 440.988C68.7708 445.34 60.0668 447.516 50.4241 447.516C41.1228 447.516 32.6321 445.255 24.9521 440.732C17.2721 436.124 11.2135 430.023 6.77611 422.428C2.33878 414.748 0.120117 406.599 0.120117 397.98C0.120117 392.007 0.674784 387.271 1.78412 383.772C2.80812 380.273 4.64278 376.22 7.28812 371.612H12.0241C9.03745 375.964 6.94679 380.017 5.75212 383.772C4.47212 387.441 3.83212 392.049 3.83212 397.596C3.83212 406.044 6.00812 413.767 10.3601 420.764C14.6268 427.676 20.3868 433.18 27.6401 437.276C34.8081 441.287 42.5308 443.292 50.8081 443.292C59.1708 443.292 66.9361 441.244 74.1041 437.148C81.2721 433.052 86.9894 427.633 91.2561 420.892C95.4375 414.065 97.5281 406.727 97.5281 398.876C97.5281 393.244 96.8881 388.337 95.6081 384.156C94.2428 379.975 92.1521 375.793 89.3361 371.612H94.0721C96.5468 375.708 98.3388 379.932 99.4481 384.284C100.643 388.551 101.24 393.244 101.24 398.364Z" fill="#EDEDED"/>
<path d="M2.68012 353.42V349.196H58.3601V283.404H2.68012V279.18H98.6801V283.404H62.0721V349.196H98.6801V353.42H2.68012Z" fill="#EDEDED"/>
<path d="M101.24 213.096C101.24 222.056 98.8935 230.376 94.2001 238.056C89.5068 245.736 83.2775 251.837 75.5121 256.36C67.6615 260.797 59.2561 263.016 50.2961 263.016C41.4215 263.016 33.1441 260.755 25.4641 256.232C17.6988 251.709 11.5548 245.608 7.03212 237.928C2.42412 230.248 0.120119 221.928 0.120119 212.968C0.12012 203.923 2.38145 195.603 6.90412 188.008C11.4268 180.413 17.5708 174.397 25.3361 169.96C33.0161 165.437 41.3361 163.176 50.2961 163.176C59.5121 163.176 68.0455 165.437 75.8961 169.96C83.6615 174.397 89.8481 180.456 94.4561 188.136C98.9788 195.731 101.24 204.051 101.24 213.096ZM97.5281 213.096C97.5281 204.904 95.4375 197.309 91.2561 190.312C86.9895 183.315 81.2721 177.768 74.1041 173.672C66.8508 169.491 59.0001 167.4 50.5521 167.4C42.1895 167.4 34.4241 169.448 27.2561 173.544C20.0881 177.64 14.4135 183.187 10.2321 190.184C5.96545 197.181 3.83212 204.776 3.83212 212.968C3.83212 221.245 5.96545 228.883 10.2321 235.88C14.4135 242.877 20.0881 248.467 27.2561 252.648C34.4241 256.744 42.1895 258.792 50.5521 258.792C59.0001 258.792 66.8508 256.744 74.1041 252.648C81.2721 248.467 86.9895 242.877 91.2561 235.88C95.4375 228.883 97.5281 221.288 97.5281 213.096Z" fill="#EDEDED"/>
<path d="M101.24 101.221C101.24 110.181 98.8935 118.501 94.2001 126.181C89.5068 133.861 83.2775 139.962 75.5121 144.485C67.6615 148.922 59.2561 151.141 50.2961 151.141C41.4215 151.141 33.1441 148.88 25.4641 144.357C17.6988 139.834 11.5548 133.733 7.03212 126.053C2.42412 118.373 0.120121 110.053 0.120121 101.093C0.120121 92.0477 2.38146 83.7277 6.90413 76.133C11.4268 68.5383 17.5708 62.5223 25.3361 58.085C33.0161 53.5623 41.3361 51.301 50.2961 51.301C59.5121 51.301 68.0455 53.5623 75.8961 58.085C83.6615 62.5223 89.8481 68.581 94.4561 76.261C98.9788 83.8557 101.24 92.1757 101.24 101.221ZM97.5281 101.221C97.5281 93.029 95.4375 85.4343 91.2561 78.437C86.9895 71.4397 81.2721 65.893 74.1041 61.797C66.8508 57.6157 59.0001 55.525 50.5521 55.525C42.1895 55.525 34.4241 57.573 27.2561 61.669C20.0881 65.765 14.4135 71.3117 10.2321 78.309C5.96545 85.3063 3.83212 92.901 3.83212 101.093C3.83212 109.37 5.96545 117.008 10.2321 124.005C14.4135 131.002 20.0881 136.592 27.2561 140.773C34.4241 144.869 42.1895 146.917 50.5521 146.917C59.0001 146.917 66.8508 144.869 74.1041 140.773C81.2721 136.592 86.9895 131.002 91.2561 124.005C95.4375 117.008 97.5281 109.413 97.5281 101.221Z" fill="#EDEDED"/>
<path d="M2.68012 33.92V29.696L94.9681 29.696V0L98.6801 4.42651e-08V33.92L2.68012 33.92Z" fill="#EDEDED"/>
</svg>
